#N canvas 944 386 831 405 10;
#X floatatom 185 99 3 0 0 0 - - -, f 3;
#X obj 140 47 notein;
#X obj 140 73 stripnote;
#X floatatom 140 98 3 0 0 0 - - -, f 3;
#X floatatom 394 213 3 0 0 0 - - -, f 3;
#X floatatom 364 212 3 0 0 0 - - -, f 3;
#X obj 364 187 ctlin;
#X obj 30 46 import mrpeach;
#X obj 224 219 packOSC;
#X obj 200 261 udpsend;
#X obj 226 294 tgl 15 0 empty empty 1=connected 20 8 0 8 -4034 -257985
-1 1 1;
#X msg 28 232 connect 127.0.0.1 13000;
#X obj 376 251 pack \$1 \$2;
#X msg 377 278 send /livid/control \$2 \$1;
#X obj 132 134 pack \$1 \$2;
#X msg 133 161 send /livid/note \$1 \$2;
#X obj 24 204 loadbang;
#X msg 265 20 1;
#X msg 297 19 2;
#X msg 330 19 3;
#X msg 364 19 4;
#X msg 397 18 5;
#X msg 429 18 6;
#X msg 460 18 7;
#X msg 492 17 8;
#X msg 524 18 9;
#X msg 558 17 10;
#X obj 217 83 - 1;
#X msg 264 76 11;
#X msg 296 75 12;
#X msg 329 75 13;
#X msg 363 75 14;
#X msg 396 73 15;
#X msg 428 74 16;
#X msg 459 74 17;
#X msg 491 73 18;
#X msg 523 74 19;
#X msg 557 73 20;
#X obj 228 114 - 1;
#X obj 592 152 vsl 15 128 0 127 0 0 empty empty empty 0 -9 0 10 -262144
-1 -1 12700 1;
#X connect 0 0 14 1;
#X connect 1 0 2 0;
#X connect 1 1 2 1;
#X connect 2 0 3 0;
#X connect 2 1 0 0;
#X connect 3 0 14 0;
#X connect 4 0 12 1;
#X connect 5 0 12 0;
#X connect 6 0 5 0;
#X connect 6 1 4 0;
#X connect 8 0 9 0;
#X connect 9 0 10 0;
#X connect 11 0 9 0;
#X connect 12 0 13 0;
#X connect 13 0 8 0;
#X connect 14 0 15 0;
#X connect 15 0 8 0;
#X connect 16 0 11 0;
#X connect 17 0 27 0;
#X connect 18 0 27 0;
#X connect 19 0 27 0;
#X connect 20 0 27 0;
#X connect 21 0 27 0;
#X connect 22 0 27 0;
#X connect 23 0 27 0;
#X connect 24 0 27 0;
#X connect 25 0 27 0;
#X connect 26 0 27 0;
#X connect 27 0 3 0;
#X connect 28 0 38 0;
#X connect 29 0 38 0;
#X connect 30 0 38 0;
#X connect 31 0 38 0;
#X connect 32 0 38 0;
#X connect 33 0 38 0;
#X connect 34 0 38 0;
#X connect 35 0 38 0;
#X connect 36 0 38 0;
#X connect 37 0 38 0;
#X connect 38 0 3 0;
#X connect 39 0 12 1;
