#N canvas 735 23 547 300 10;
#X floatatom 186 99 3 0 0 0 - - -, f 3;
#X obj 141 47 notein;
#X obj 141 73 stripnote;
#X floatatom 141 98 3 0 0 0 - - -, f 3;
#X floatatom 339 97 3 0 0 0 - - -, f 3;
#X floatatom 309 96 3 0 0 0 - - -, f 3;
#X obj 309 71 ctlin;
#X obj 31 46 import mrpeach;
#X obj 225 219 packOSC;
#X obj 201 261 udpsend;
#X obj 227 294 tgl 15 0 empty empty 1=connected 20 8 0 8 -4034 -257985
-1 1 1;
#X msg 29 232 connect 127.0.0.1 13000;
#X obj 321 135 pack \$1 \$2;
#X msg 322 162 send /livid/control \$2 \$1;
#X obj 133 134 pack \$1 \$2;
#X msg 134 161 send /livid/note \$1 \$2;
#X obj 25 204 loadbang;
#X connect 0 0 14 1;
#X connect 1 0 2 0;
#X connect 1 1 2 1;
#X connect 2 0 3 0;
#X connect 2 1 0 0;
#X connect 3 0 14 0;
#X connect 4 0 12 1;
#X connect 5 0 12 0;
#X connect 6 0 5 0;
#X connect 6 1 4 0;
#X connect 8 0 9 0;
#X connect 9 0 10 0;
#X connect 11 0 9 0;
#X connect 12 0 13 0;
#X connect 13 0 8 0;
#X connect 14 0 15 0;
#X connect 15 0 8 0;
#X connect 16 0 11 0;
