#N canvas 945 386 831 405 10;
#X floatatom 185 99 3 0 0 0 - - -, f 3;
#X obj 140 47 notein;
#X obj 140 73 stripnote;
#X floatatom 140 98 3 0 0 0 - - -, f 3;
#X floatatom 338 97 3 0 0 0 - - -, f 3;
#X floatatom 308 96 3 0 0 0 - - -, f 3;
#X obj 308 71 ctlin;
#X obj 30 46 import mrpeach;
#X obj 224 219 packOSC;
#X obj 200 261 udpsend;
#X obj 226 294 tgl 15 0 empty empty 1=connected 20 8 0 8 -4034 -257985
-1 1 1;
#X msg 28 232 connect 127.0.0.1 13000;
#X obj 320 135 pack \$1 \$2;
#X msg 321 162 send /livid/control \$2 \$1;
#X obj 132 134 pack \$1 \$2;
#X msg 133 161 send /livid/note \$1 \$2;
#X obj 24 204 loadbang;
#X msg 217 20 1;
#X msg 249 19 2;
#X msg 282 19 3;
#X msg 316 19 4;
#X msg 349 18 5;
#X msg 381 18 6;
#X msg 412 18 7;
#X msg 444 17 8;
#X msg 476 18 9;
#X msg 510 17 10;
#X obj 243 59 - 1;
#X connect 0 0 14 1;
#X connect 1 0 2 0;
#X connect 1 1 2 1;
#X connect 2 0 3 0;
#X connect 2 1 0 0;
#X connect 3 0 14 0;
#X connect 4 0 12 1;
#X connect 5 0 12 0;
#X connect 6 0 5 0;
#X connect 6 1 4 0;
#X connect 8 0 9 0;
#X connect 9 0 10 0;
#X connect 11 0 9 0;
#X connect 12 0 13 0;
#X connect 13 0 8 0;
#X connect 14 0 15 0;
#X connect 15 0 8 0;
#X connect 16 0 11 0;
#X connect 17 0 27 0;
#X connect 18 0 27 0;
#X connect 19 0 27 0;
#X connect 20 0 27 0;
#X connect 21 0 27 0;
#X connect 22 0 27 0;
#X connect 23 0 27 0;
#X connect 24 0 27 0;
#X connect 25 0 27 0;
#X connect 26 0 27 0;
#X connect 27 0 3 0;
